<mxfile host="app.diagrams.net" modified="2023-07-19T01:55:24.756Z" agent="Mozilla/5.0 (Windows NT 10.0; Win64; x64) AppleWebKit/537.36 (KHTML, like Gecko) Chrome/114.0.0.0 Safari/537.36" etag="e-zzlhHnzgzagQTYr-NH" version="21.3.2" type="github">
  <diagram name="Page-1" id="M-VxKTPD5DRaOb1jhItE">
    <mxGraphModel dx="678" dy="334" grid="1" gridSize="10" guides="1" tooltips="1" connect="1" arrows="1" fold="1" page="1" pageScale="1" pageWidth="827" pageHeight="1169" math="0" shadow="0">
      <root>
        <mxCell id="0" />
        <mxCell id="1" parent="0" />
        <mxCell id="pnYCGuM_4Pa2nasa4k_5-19" style="edgeStyle=orthogonalEdgeStyle;rounded=0;orthogonalLoop=1;jettySize=auto;html=1;entryX=0.5;entryY=0;entryDx=0;entryDy=0;" edge="1" parent="1" source="pnYCGuM_4Pa2nasa4k_5-2" target="pnYCGuM_4Pa2nasa4k_5-6">
          <mxGeometry relative="1" as="geometry" />
        </mxCell>
        <mxCell id="pnYCGuM_4Pa2nasa4k_5-2" value="HH sample" style="shape=note;whiteSpace=wrap;html=1;backgroundOutline=1;darkOpacity=0.05;" vertex="1" parent="1">
          <mxGeometry x="260" y="40" width="80" height="100" as="geometry" />
        </mxCell>
        <mxCell id="pnYCGuM_4Pa2nasa4k_5-20" style="edgeStyle=orthogonalEdgeStyle;rounded=0;orthogonalLoop=1;jettySize=auto;html=1;entryX=0.5;entryY=0;entryDx=0;entryDy=0;" edge="1" parent="1" source="pnYCGuM_4Pa2nasa4k_5-3" target="pnYCGuM_4Pa2nasa4k_5-7">
          <mxGeometry relative="1" as="geometry" />
        </mxCell>
        <mxCell id="pnYCGuM_4Pa2nasa4k_5-3" value="PP sample" style="shape=note;whiteSpace=wrap;html=1;backgroundOutline=1;darkOpacity=0.05;" vertex="1" parent="1">
          <mxGeometry x="370" y="40" width="80" height="100" as="geometry" />
        </mxCell>
        <mxCell id="pnYCGuM_4Pa2nasa4k_5-17" style="edgeStyle=orthogonalEdgeStyle;rounded=0;orthogonalLoop=1;jettySize=auto;html=1;" edge="1" parent="1" source="pnYCGuM_4Pa2nasa4k_5-4" target="pnYCGuM_4Pa2nasa4k_5-14">
          <mxGeometry relative="1" as="geometry" />
        </mxCell>
        <mxCell id="pnYCGuM_4Pa2nasa4k_5-21" style="edgeStyle=orthogonalEdgeStyle;rounded=0;orthogonalLoop=1;jettySize=auto;html=1;entryX=0.5;entryY=0;entryDx=0;entryDy=0;" edge="1" parent="1" source="pnYCGuM_4Pa2nasa4k_5-4" target="pnYCGuM_4Pa2nasa4k_5-7">
          <mxGeometry relative="1" as="geometry" />
        </mxCell>
        <mxCell id="pnYCGuM_4Pa2nasa4k_5-4" value="PP Census" style="shape=note;whiteSpace=wrap;html=1;backgroundOutline=1;darkOpacity=0.05;" vertex="1" parent="1">
          <mxGeometry x="480" y="40" width="80" height="100" as="geometry" />
        </mxCell>
        <mxCell id="pnYCGuM_4Pa2nasa4k_5-18" style="edgeStyle=orthogonalEdgeStyle;rounded=0;orthogonalLoop=1;jettySize=auto;html=1;entryX=0;entryY=0.5;entryDx=0;entryDy=0;" edge="1" parent="1" source="pnYCGuM_4Pa2nasa4k_5-5" target="pnYCGuM_4Pa2nasa4k_5-6">
          <mxGeometry relative="1" as="geometry">
            <Array as="points">
              <mxPoint x="200" y="180" />
              <mxPoint x="263" y="180" />
              <mxPoint x="263" y="260" />
            </Array>
          </mxGeometry>
        </mxCell>
        <mxCell id="pnYCGuM_4Pa2nasa4k_5-35" style="edgeStyle=orthogonalEdgeStyle;rounded=0;orthogonalLoop=1;jettySize=auto;html=1;" edge="1" parent="1" source="pnYCGuM_4Pa2nasa4k_5-5" target="pnYCGuM_4Pa2nasa4k_5-14">
          <mxGeometry relative="1" as="geometry">
            <Array as="points">
              <mxPoint x="200" y="20" />
              <mxPoint x="700" y="20" />
            </Array>
          </mxGeometry>
        </mxCell>
        <mxCell id="pnYCGuM_4Pa2nasa4k_5-5" value="HH Census" style="shape=note;whiteSpace=wrap;html=1;backgroundOutline=1;darkOpacity=0.05;" vertex="1" parent="1">
          <mxGeometry x="160" y="40" width="80" height="100" as="geometry" />
        </mxCell>
        <mxCell id="pnYCGuM_4Pa2nasa4k_5-9" style="edgeStyle=orthogonalEdgeStyle;rounded=0;orthogonalLoop=1;jettySize=auto;html=1;dashed=1;" edge="1" parent="1" source="pnYCGuM_4Pa2nasa4k_5-6" target="pnYCGuM_4Pa2nasa4k_5-8">
          <mxGeometry relative="1" as="geometry" />
        </mxCell>
        <mxCell id="pnYCGuM_4Pa2nasa4k_5-30" style="edgeStyle=orthogonalEdgeStyle;rounded=0;orthogonalLoop=1;jettySize=auto;html=1;entryX=0;entryY=0.5;entryDx=0;entryDy=0;" edge="1" parent="1" source="pnYCGuM_4Pa2nasa4k_5-6" target="pnYCGuM_4Pa2nasa4k_5-11">
          <mxGeometry relative="1" as="geometry">
            <Array as="points">
              <mxPoint x="260" y="310" />
              <mxPoint x="60" y="310" />
              <mxPoint x="60" y="470" />
            </Array>
          </mxGeometry>
        </mxCell>
        <mxCell id="pnYCGuM_4Pa2nasa4k_5-6" value="PP BN&lt;br&gt;(Rejection Sampling based on evidences)" style="shape=hexagon;perimeter=hexagonPerimeter2;whiteSpace=wrap;html=1;fixedSize=1;" vertex="1" parent="1">
          <mxGeometry x="203" y="220" width="120" height="80" as="geometry" />
        </mxCell>
        <mxCell id="pnYCGuM_4Pa2nasa4k_5-10" style="edgeStyle=orthogonalEdgeStyle;rounded=0;orthogonalLoop=1;jettySize=auto;html=1;entryX=0.5;entryY=0;entryDx=0;entryDy=0;dashed=1;" edge="1" parent="1" source="pnYCGuM_4Pa2nasa4k_5-7" target="pnYCGuM_4Pa2nasa4k_5-8">
          <mxGeometry relative="1" as="geometry" />
        </mxCell>
        <mxCell id="pnYCGuM_4Pa2nasa4k_5-36" style="edgeStyle=orthogonalEdgeStyle;rounded=0;orthogonalLoop=1;jettySize=auto;html=1;entryX=0;entryY=0.5;entryDx=0;entryDy=0;" edge="1" parent="1" source="pnYCGuM_4Pa2nasa4k_5-7" target="pnYCGuM_4Pa2nasa4k_5-11">
          <mxGeometry relative="1" as="geometry">
            <Array as="points">
              <mxPoint x="477" y="310" />
              <mxPoint x="60" y="310" />
              <mxPoint x="60" y="470" />
            </Array>
          </mxGeometry>
        </mxCell>
        <mxCell id="pnYCGuM_4Pa2nasa4k_5-37" value="Reject Sampling both level" style="edgeLabel;html=1;align=center;verticalAlign=middle;resizable=0;points=[];" vertex="1" connectable="0" parent="pnYCGuM_4Pa2nasa4k_5-36">
          <mxGeometry x="0.0388" y="-1" relative="1" as="geometry">
            <mxPoint as="offset" />
          </mxGeometry>
        </mxCell>
        <mxCell id="pnYCGuM_4Pa2nasa4k_5-7" value="HH BN&lt;br&gt;(Sample first then generate evidence)" style="shape=hexagon;perimeter=hexagonPerimeter2;whiteSpace=wrap;html=1;fixedSize=1;" vertex="1" parent="1">
          <mxGeometry x="417" y="220" width="120" height="80" as="geometry" />
        </mxCell>
        <mxCell id="pnYCGuM_4Pa2nasa4k_5-26" style="edgeStyle=orthogonalEdgeStyle;rounded=0;orthogonalLoop=1;jettySize=auto;html=1;entryX=0.5;entryY=0;entryDx=0;entryDy=0;" edge="1" parent="1" source="pnYCGuM_4Pa2nasa4k_5-8" target="pnYCGuM_4Pa2nasa4k_5-11">
          <mxGeometry relative="1" as="geometry" />
        </mxCell>
        <mxCell id="pnYCGuM_4Pa2nasa4k_5-29" value="Select the weakest" style="edgeLabel;html=1;align=center;verticalAlign=middle;resizable=0;points=[];" vertex="1" connectable="0" parent="pnYCGuM_4Pa2nasa4k_5-26">
          <mxGeometry x="-0.0931" y="1" relative="1" as="geometry">
            <mxPoint as="offset" />
          </mxGeometry>
        </mxCell>
        <mxCell id="pnYCGuM_4Pa2nasa4k_5-8" value="Solution(s)" style="whiteSpace=wrap;html=1;aspect=fixed;" vertex="1" parent="1">
          <mxGeometry x="330" y="330" width="80" height="80" as="geometry" />
        </mxCell>
        <mxCell id="pnYCGuM_4Pa2nasa4k_5-24" style="edgeStyle=orthogonalEdgeStyle;rounded=0;orthogonalLoop=1;jettySize=auto;html=1;entryX=0;entryY=0.5;entryDx=0;entryDy=0;" edge="1" parent="1" source="pnYCGuM_4Pa2nasa4k_5-11" target="pnYCGuM_4Pa2nasa4k_5-12">
          <mxGeometry relative="1" as="geometry">
            <Array as="points">
              <mxPoint x="180" y="615" />
            </Array>
          </mxGeometry>
        </mxCell>
        <mxCell id="pnYCGuM_4Pa2nasa4k_5-25" value="Select the most different couples" style="edgeLabel;html=1;align=center;verticalAlign=middle;resizable=0;points=[];" vertex="1" connectable="0" parent="pnYCGuM_4Pa2nasa4k_5-24">
          <mxGeometry x="-0.2546" y="-4" relative="1" as="geometry">
            <mxPoint as="offset" />
          </mxGeometry>
        </mxCell>
        <mxCell id="pnYCGuM_4Pa2nasa4k_5-11" value="Mutation (focus on PP level)" style="rounded=0;whiteSpace=wrap;html=1;" vertex="1" parent="1">
          <mxGeometry x="120" y="440" width="120" height="60" as="geometry" />
        </mxCell>
        <mxCell id="pnYCGuM_4Pa2nasa4k_5-28" style="edgeStyle=orthogonalEdgeStyle;rounded=0;orthogonalLoop=1;jettySize=auto;html=1;entryX=0.5;entryY=1;entryDx=0;entryDy=0;" edge="1" parent="1" source="pnYCGuM_4Pa2nasa4k_5-12" target="pnYCGuM_4Pa2nasa4k_5-13">
          <mxGeometry relative="1" as="geometry" />
        </mxCell>
        <mxCell id="pnYCGuM_4Pa2nasa4k_5-12" value="Crossover" style="rounded=0;whiteSpace=wrap;html=1;" vertex="1" parent="1">
          <mxGeometry x="310" y="585" width="120" height="60" as="geometry" />
        </mxCell>
        <mxCell id="pnYCGuM_4Pa2nasa4k_5-33" style="edgeStyle=orthogonalEdgeStyle;rounded=0;orthogonalLoop=1;jettySize=auto;html=1;entryX=1;entryY=0.5;entryDx=0;entryDy=0;" edge="1" parent="1" source="pnYCGuM_4Pa2nasa4k_5-13" target="pnYCGuM_4Pa2nasa4k_5-8">
          <mxGeometry relative="1" as="geometry">
            <Array as="points">
              <mxPoint x="560" y="370" />
            </Array>
          </mxGeometry>
        </mxCell>
        <mxCell id="pnYCGuM_4Pa2nasa4k_5-34" value="Keep the ones most diverse" style="edgeLabel;html=1;align=center;verticalAlign=middle;resizable=0;points=[];" vertex="1" connectable="0" parent="pnYCGuM_4Pa2nasa4k_5-33">
          <mxGeometry x="-0.0232" y="-3" relative="1" as="geometry">
            <mxPoint as="offset" />
          </mxGeometry>
        </mxCell>
        <mxCell id="pnYCGuM_4Pa2nasa4k_5-13" value="Selection" style="rounded=0;whiteSpace=wrap;html=1;" vertex="1" parent="1">
          <mxGeometry x="500" y="440" width="120" height="60" as="geometry" />
        </mxCell>
        <mxCell id="pnYCGuM_4Pa2nasa4k_5-32" style="edgeStyle=orthogonalEdgeStyle;rounded=0;orthogonalLoop=1;jettySize=auto;html=1;entryX=1;entryY=0.5;entryDx=0;entryDy=0;" edge="1" parent="1" source="pnYCGuM_4Pa2nasa4k_5-14" target="pnYCGuM_4Pa2nasa4k_5-13">
          <mxGeometry relative="1" as="geometry" />
        </mxCell>
        <mxCell id="pnYCGuM_4Pa2nasa4k_5-14" value="Main fitness func" style="rhombus;whiteSpace=wrap;html=1;" vertex="1" parent="1">
          <mxGeometry x="660" y="200" width="80" height="80" as="geometry" />
        </mxCell>
      </root>
    </mxGraphModel>
  </diagram>
</mxfile>
